<svg version="1" xmlns="http://www.w3.org/2000/svg" width="141.333" height="141.333" viewBox="0 0 106.000000 106.000000"><path d="M25.5 2c-6.3 2.5-12.6 8.1-15.6 14-2.7 5.2-3.8 16.1-2.1 21 .7 1.8.7 2.8.2 2.5-.6-.4-1-1.4-1.1-2.3-.1-2.4-2.8 4.1-3.5 8.6-.9 4.8-.8 18.1 0 18.9 1.7 1.7 2.8-2.3 3-10.8C6.7 44.6 7.5 41 9 41c.5 0 1.1.9 1.5 1.9.3 1.1 2.5 3.9 4.9 6.2l4.3 4.3-4.6 3.4C4.7 64.6.5 71 1.3 77.6c.6 5.7 3.8 8.5 12.6 11.4 8.1 2.5 16.8 3.1 23.6 1.5l5.1-1.2 2.8 3.9c1.5 2.1 5.1 5.4 7.9 7.3 2.9 1.9 4.7 3.5 4.1 3.5-.5 0-1.5-.5-2.1-1.1-.7-.7-3.8-1.4-6.9-1.6-6.2-.5-14.9-3.4-20.4-6.8-1.9-1.2-5-2.4-6.9-2.7l-3.4-.5 3.4 2.8c8 6.5 20.2 10.9 30.4 10.8 3.3 0 7.4 0 9 .1 17.3.5 19.1.3 23-1.5 12.5-5.9 19.6-16.7 19.7-30 .2-10.3-5.3-20.3-14.1-26.2-3.8-2.5-5-3.8-4-4.2C98 38 97.3 18.7 84 14.5c-1.4-.4-4.1-1.8-6-3-5.4-3.4-11.1-5.2-19.5-6.1-5-.5-5-.5-2.6 1.3 2.5 1.8 12.2 4.8 20.1 6.2 3.2.6 3.7.9 1.7 1-4 .2-8.1 2.5-11.1 6.3-1.4 1.8-2.6 2.7-2.6 2 0-2.6-4.3-10.1-7.7-13.6C48.5.8 35.5-2 25.5 2zM69 41.4c0 .2-1.6.6-3.5.8-1.9.2-3.5.2-3.5 0 0-.3.5-2.2 1.1-4.3l1.2-3.8 2.3 3.5c1.3 1.9 2.4 3.6 2.4 3.8z"/><path d="M60.2 11.1c.4 1.3 7.3 3.9 10.2 3.9 3.2 0 .6-1.7-5.2-3.4-3.4-1-5.2-1.1-5-.5zM95.2 31.2c-.1 1.3.7 4.7 1.8 7.6 1.1 2.9 2.2 7.8 2.5 11 .7 7.2 2.6 13.6 3.6 12.1 1-1.6.3-15.2-1.1-19.7-1.5-5.1-5.2-13.2-6-13.2-.3 0-.7 1-.8 2.2zM93.6 36.8c-.3.6-.1 2.3.4 3.8.6 1.4 1.3 4.3 1.6 6.3.7 5 1.4 7.1 2.3 7.1.9 0 .8-1.5-.3-7.9-1.1-5.7-3.1-10.6-4-9.3zM8.5 46.3c-.8 3.2-1.3 11.9-.7 13.4.9 2.8 2.1 0 2.1-5.2 0-3 .2-6.3.6-7.4.3-1.1.1-2.2-.4-2.6-.6-.3-1.3.5-1.6 1.8zM28 92.5c0 .7 9.2 5.2 12.1 5.8 1.4.4 4.4.9 6.5 1.2 3.6.5 3.8.5 2-1-1.1-.8-3-1.5-4.3-1.5-1.2 0-4.6-.9-7.5-2.1-5.6-2.2-8.8-3.1-8.8-2.4z"/></svg>